<?xml version="1.0" encoding="UTF-8"?>
<svg xmlns="http://www.w3.org/2000/svg" viewBox="0 0 441.64 467.12">
<defs>
<style>
g{opacity:0%;animation:fadein 8s ease forwards}
.cls-1{fill:none;}
.cls-1,.cls-2{stroke:#d3e3a8;stroke-linecap:round;stroke-linejoin:round;stroke-width:6px;}
.cls-2{fill:#f6f6f6;}
.animate-1{stroke-dasharray:230;stroke-dashoffset:230;animation:dash 2s linear forwards;animation-delay:4s}
.animate-2{stroke-dasharray:140;stroke-dashoffset:140;animation:dash 2s linear forwards;animation-delay:2s}
.animate-3{stroke-dasharray:555;stroke-dashoffset:555;animation:dash 4s linear forwards}
.animate-4{stroke-dasharray:270;stroke-dashoffset:270;animation:dash 3s linear forwards;animation-delay:4s}
@keyframes dash{to{stroke-dashoffset:0}}
@keyframes fadein{to{opacity:100%}}
</style>
</defs>
<g>
<path class="cls-1 animate-4" d="M435.64,269.23s-14.3-57.18-25.83-74.81-29.18-47.74-27.11-86.69c0,0,18.69,37.91,23.37,54s8.32,41.31,8.32,41.31"/>
<path class="cls-1" d="M435.64,275.3s-10.37-15.63-19.94-23.1c-9.57-7.47-16.57-16.1-21-28.93s-10.87-18.28-10.87-18.28c0,0,39.22,15.99,51.81,70.32Z"/>
<path class="cls-1" d="M416.77,208.57l-17.78-17.87c-1.47-1.48-3.11-2.78-4.88-3.87L234.59,88.65c-4.85-2.99-10.42-4.6-16.12-4.67-13.82-.17-39.83-.4-46.26,.12-8.87,.71-46.83,1.77-66.34-3.9s-54.63-7.45-73.08-1.77-29.8,7.45-29.8,7.45c0,0,31.93,6.74,52.15,.71s44.77-6.98,56.9-4.91"/>
<path class="cls-1 animate-1" d="M53.17,177.37s20.39-35.87,25.81-56.52,10.32-34.61,21.16-40.15c0,0-29.16,7.11-39.74,50.21s-7.23,46.46-7.23,46.46Z"/>
<path class="cls-1" d="M435.64,318.18l-96.02-140.81s-84.95-14.02-129.74-19.65-55.77-3.66-102.36,37.58c0,0,76.08-41.5,113.98-36.06"/>
<path class="cls-1 animate-2" d="M176.82,119.23s11.95,23.78,34.52,32.13,19.82,9.22,19.82,9.22c0,0-5.02-15.03-27.12-25.96s-27.22-15.38-27.22-15.38Z"/>
<path class="cls-1" d="M325.85,175.12s-27.71-2.58-62.57,31.94-49.01,43.61-49.01,43.61c0,0,33.63-20.37,41.15-23.78s27.32-13.85,48.87-32.81l21.56-18.95Z"/>
<path class="cls-1" d="M329.25,175.67s-13.45,7.05-20.85,40.28-1.37,30.42-6.84,55.71c0,0,11.96-40.33,16.75-52.29s13.9-29.21,10.94-43.69Z"/>
<path class="cls-1 animate-3" d="M435.64,390.54s-68.59-39.67-74.31-43.61-56.69-41.24-62.71-42.15c0,0-94.92-9.68-112.79-13.61-17.87-3.93-51.11-10.01-64.34-6.08s-62.91,25.74-66.48,43.61c0,0,43.66-19.15,55.76-25.38,12.81-6.59,45.18-15.42,66.06-14.03"/>
<path class="cls-1" d="M329.83,324.54s-22.56-1.08-35.85,12.64-22.28,21.92-28.93,28.57c0,0,44.73-21.43,64.78-41.2Z"/>
<path class="cls-1" d="M298.62,304.78s-12.38-7.83-23.82-8.23-57.05-19.54-57.05-19.54c0,0,24.58,.39,40.43,5.08s29.54,5.86,29.54,5.86c0,0,13.76,.23,13.84,7.82s-2.94,9.01-2.94,9.01Z"/>
<path class="cls-1" d="M121.49,285.09s-56.18-9.25-81.98-31.54c0,0,33.62,8.99,46.91,8.99s35.08,22.54,35.08,22.54Z"/>
<path class="cls-2" d="M438.64,464.12s-10.12-20.26-22.38-32.44c-4.23-4.2-6.7-9.86-7.09-15.8-1.16-17.46-7.6-55.17-39.13-97.36-1.74-2.32-2.7-5.13-2.78-8.03-.39-13.88-3.84-58.15-30.83-100.35-2.85-4.45-4.42-9.6-4.57-14.89-.64-22.55-4.33-84.94-25.49-107.71-3.05-3.28-5.11-7.33-5.92-11.73-2.54-13.91-8.84-43.39-18.91-58.43-1.78-2.66-1.27-6.23,1.27-8.18,3.31-2.55,8.28-5.47,14.24-6.14,3.26-.37,6.24,1.91,6.67,5.16,1.57,11.72,6.35,40.87,16.3,53.59,1.08,1.38,.71,3.39-.73,4.37-4.38,2.98-11.8,8.76-9.14,12.12,2.36,2.98,8.19-.06,12.09-2.65,1.8-1.19,4.22-.13,4.59,1.99,3.23,18.85,15.92,88.18,30.83,108.77,1.24,1.72,.48,4.14-1.51,4.87-5.8,2.14-15.04,6.31-13.62,10.81s12.12,.69,18.34-2c2.09-.91,4.44,.59,4.48,2.88,.31,16.09,2.96,67.65,24.02,97.23,1.11,1.56,.02,3.72-1.89,3.75-4.76,.06-11.13,1.29-10.92,7.51,.25,7.56,11.89,2.64,17.37-.1,1.4-.7,3.09,.13,3.39,1.67,2.71,13.91,14.58,70.02,33.02,89.44,1.33,1.4,.94,3.69-.76,4.6-4.94,2.65-12.79,7.78-10.89,12.87,1.72,4.6,8,1.56,12.43-1.32,1.96-1.28,7.55,.14,7.55,2.48v43.04Z"/>
</g>
</svg>
