<?xml version="1.0" encoding="UTF-8"?>
<svg xmlns="http://www.w3.org/2000/svg" viewBox="0 0 371.08 520.94">
<defs>
<style>
g{opacity:0%;animation:fadein 8s ease forwards}
.cls-1{fill:none;}
.cls-1,.cls-2{stroke:#d3e3a8;stroke-linecap:round;stroke-linejoin:round;stroke-width:6px;}
.cls-2{fill:#f6f6f6;}
.animate-1{stroke-dasharray:800;stroke-dashoffset:800;animation:dash 8s linear forwards}
.animate-2{stroke-dasharray:250;stroke-dashoffset:250;animation:dash 2s linear forwards;animation-delay:5s}
.animate-3{stroke-dasharray:400;stroke-dashoffset:400;animation:dash 4s linear forwards;animation-delay:2s}
.animate-4{stroke-dasharray:270;stroke-dashoffset:270;animation:dash 2s linear forwards;animation-delay:4s}
.animate-5{stroke-dasharray:750;stroke-dashoffset:750;animation:dash 6s linear forwards;animation-delay:2s}
.animate{stroke-dasharray:20}
@keyframes dash{to{stroke-dashoffset:0}}
@keyframes fadein{to{opacity:100%}}
</style>
</defs>
<g>
<path class="cls-1 animate-5" d="M20.45,514.94c-1.14-10.33-3.78-33.28-7.68-56.73-3.02-18.2-4.73-27.24-6.2-32.01-1.39-4.52-1.82-6.6-2.94-12.18-.72-3.6-.78-5.48-.42-7.56,.73-4.2,3.08-7.07,4.2-8.4,11.5-13.67,17.24-20.5,23.93-27.29,2.05-2.08,7.25-8.39,17.63-20.99,23.19-28.14,38.27-51.64,70.11-93.62,23.3-30.72,27.35-34.11,40.72-54.16,5.47-8.2,22.02-35.14,28.97-48.28,2.4-4.54,5.24-8.85,7.56-13.43,2.23-4.42,3.36-7.14,6.3-10.08,2.55-2.55,5.16-3.96,8.4-5.46,9.82-4.53,18.54-6.67,21.96-7.45,8.66-1.99,15.63-3.06,21.28-4.76,12.52-3.77,15.33-4.5,27.3-10.88,7.19-3.83,8.15-1.86,16.79-4.62,3.5-1.12,11.89-3.82,20.57-7.98,17.54-8.39,17.26-13.57,39.46-26.45,4.57-2.65,10.08-5.62,9.66-6.72-.47-1.21-7.88,.61-10.5,1.26-23.45,5.78-42.34,17.78-46.3,20.33-7.72,4.98-18.52,13.75-29.69,24.17"/>
<path class="cls-1" d="M283.48,68.7s-22.88,11.64-31.28,19.28c-8.4,7.64-6.24,19.8-30.7,32.59,0,0,20.05-8.19,37.64-22.8s24.35-29.07,24.35-29.07Z"/>
<path class="cls-1 animate-2" d="M245.03,114.76s18.14-1.42,29.45,2.75,20.57,7.76,28.28,8.28,46.03-7.71,57.08-7.2c0,0-37.54-8.74-55.8-9s-59.02,5.18-59.02,5.18Z"/>
<path class="cls-1" d="M7.41,398.07s16.19-17.17,6.15-109.48c0,0-5.75,13.09-7.23,41.49s13.3,18.56,1.08,67.99Z"/>
<path class="cls-1" d="M163.94,195.6s7.24,20.39,4.45,42.34c0,0,15.92-12.91,9.76-26.61s-14.2-15.73-14.2-15.73Z"/>
<path class="cls-1" d="M172.36,182s21.25,10.31,30.35,80.69c0,0,17.69-39.12-11.04-76.35-9.72-12.6-19.31-4.34-19.31-4.34Z"/>
<path class="cls-1" d="M174.58,178.32s9.76-23.67,79.61,5.41c0,0-58.64-7.96-79.61-5.41Z"/>
<path class="cls-2" d="M39.91,517.94c9.48-31.79-.35-72.76-3-81.9-.32-1.11,.3-2.27,1.41-2.61,4.28-1.31,13.77-4.98,12.97-11.67-.67-5.62-6.85-3.9-11.07-2.03-1.59,.7-3.3-.68-2.94-2.38,12.03-55.51,4.34-95.78,1.91-106.11-.33-1.39,.56-2.76,1.95-3.05,3.88-.79,10.66-2.73,10.3-6.57-.31-3.34-5.23-3.39-8.91-2.96-1.79,.21-3.21-1.5-2.68-3.22,8.83-28.56,5.89-72.49,4.53-87.47-.26-2.82,1.69-5.35,4.47-5.88,4.48-.84,10.48-2.67,11.41-6.48,.83-3.39-3.18-4.42-6.96-4.65-3.15-.19-5.42-3.06-4.85-6.17,7.7-42.08,4.91-73.9,3.41-85.36-.32-2.46,1.46-4.71,3.94-4.94,5.59-.52,14.22-1.86,13.97-5.21-.22-3.05-6.21-4.79-10.78-5.68-2.62-.51-4.21-3.21-3.34-5.74,11.51-33.22,7.57-59.32,5.52-68.47-.5-2.21,.82-4.4,2.99-5.08,6.82-2.15,13.01-1.27,16.98-.16,2.45,.69,3.78,3.33,2.87,5.7-9.23,24.07-6.7,59.55-5.08,74.43,.48,4.42-.18,8.88-1.92,12.97-14.06,33.22-9.13,73.24-6.39,88.77,.75,4.24,.41,8.6-1.08,12.63-15.41,41.66-9.74,90.49-7.4,105.74,.49,3.22,.32,6.5-.49,9.66-13.9,53.9-5.72,87.35-2.26,97.78,.83,2.51,1.04,5.2,.66,7.82-2.2,15.05-3.14,27.81-3.56,37.55-.41,9.57-.72,17.13,.28,27.24,1.19,12.01,3.64,25.3,6.18,33.49h-23.06Z"/>
<path class="cls-2 animate-1" d="M108.67,517.94s4.56-16.35,5.35-22.76c0,0,11.28,2.4,13.71-4.15s-11.89-5.79-11.89-5.79c0,0,18-34.17,11.89-76.06,0,0,12.2,2.97,12.22-3.03,.02-6-11.97-5.47-11.97-5.47,0,0,12.82-28.04,3.92-58.41,0,0,14.6-.56,14.53-6.67s-16.17-1.7-16.17-1.7c0,0,7.08-45.98-5.05-72.43,0,0,12.23-2.03,11.57-7.73s-14.26-2.07-14.26-2.07c0,0,6.27-4.81-5.86-56.06,0,0,6.34-7.34,15.71-4.5,0,0-.7,29.27,10.8,54.34,1.91,4.17,2.45,8.84,1.6,13.34-2.23,11.82-4.64,37.3,7.48,65.7,2.19,5.12,2.45,10.87,.63,16.14-3.96,11.52-9.7,34.17-5.29,60,.6,3.54,.3,7.17-.81,10.59-4.08,12.51-13.33,44.95-10.85,75.27,.3,3.66-.35,7.33-1.82,10.69-2.54,5.8-6.38,15.02-7.81,20.76h-17.64Z"/>
<path class="cls-1" d="M240.16,273.56c23.46-5.6,49.63-70.83,49.63-70.83-20.94,14.42-37.17,42.56-49.63,70.83-10.54,23.91-58.3,105.4-72.77,129.94-2.62,4.44-4.32,9.34-4.99,14.45-3.62,27.36-16.67,97-16.67,97l14.78-24.84c2.87-4.82,7.24-8.57,12.44-10.68,17.8-7.21,60.16-24.94,73.27-35.43,0,0,52.46-8.93,69.87-28.13,0,0-29.02-4.46-50.9,12.61-21.88,17.08-26.39,20.49-26.39,20.49"/>
<path class="cls-1" d="M223.3,306.12s16.38-28.65,44.53-30.22,56.31-8.26,56.31-8.26c0,0-26.33,12.09-45.41,19.24s-44.49,5.71-55.44,19.24Z"/>
<path class="cls-1 animate-3" d="M160.86,428.48s3.32-13.23,10.89-19.89,51.79-46.01,55.32-50.21,10.67-22.56,17.47-29.82,21.82-17.67,25.86-22.44-9.99,33.93-43.33,52.26"/>
<path class="cls-1 animate-4" d="M191.94,390.63s13.63-8.02,38.31-10.03,34.95-1.34,48.34-4.91c0,0-18.22,14.29-43.15,15.85s-34.03-4.9-49.89,4.81l6.4-5.72Z"/>
<path class="cls-1" d="M200.29,391.1s-5.86,17.63,11.78,43.52c0,0,3.57-18.3-3.57-28.8s-8.2-14.72-8.2-14.72Z"/>
<path class="cls-1" d="M219.59,459.06s37.79-15.07,32.21-51.45c0,0-5.87,4.44-11.64,20.08s-20.57,31.37-20.57,31.37Z"/>
</g>
</svg>